<?xml version="1.0" standalone="no"?>
<!DOCTYPE svg PUBLIC "-//W3C//DTD SVG 20010904//EN"
 "http://www.w3.org/TR/2001/REC-SVG-20010904/DTD/svg10.dtd">
<svg version="1.0" xmlns="http://www.w3.org/2000/svg"
 width="250.000000pt" height="250.000000pt" viewBox="0 0 250.000000 250.000000"
 preserveAspectRatio="xMidYMid meet">
<metadata>
Created by potrace 1.14, written by Peter Selinger 2001-2017
</metadata>
<g transform="translate(0.000000,250.000000) scale(0.100000,-0.100000)"
fill="#000000" stroke="none">
<path d="M875 2098 c-193 -12 -300 -28 -330 -49 -5 -3 -35 -14 -65 -22 -43
-13 -58 -22 -67 -44 -7 -16 -44 -62 -82 -103 -39 -41 -70 -78 -71 -82 0 -4
-14 -21 -30 -38 -17 -17 -30 -37 -30 -44 0 -8 23 -37 50 -66 28 -29 63 -69 78
-90 15 -20 59 -72 97 -115 39 -42 74 -84 79 -93 5 -10 17 -24 26 -32 9 -8 47
-51 85 -95 38 -44 79 -91 91 -105 13 -14 60 -70 106 -125 46 -55 88 -104 94
-110 6 -5 53 -59 105 -120 52 -60 96 -112 99 -115 3 -3 28 -32 55 -65 28 -32
61 -71 74 -85 l23 -26 27 26 c14 14 44 48 66 75 22 28 44 55 50 61 5 6 31 36
56 65 26 30 80 92 120 137 41 46 109 125 151 175 42 51 85 101 95 112 11 11
42 47 70 80 28 33 103 119 166 192 63 72 128 149 143 170 16 21 50 60 76 87
51 54 51 59 1 111 -15 17 -40 47 -55 67 -15 20 -33 42 -40 50 -7 7 -33 39 -57
71 -50 65 -60 72 -116 82 -22 4 -51 13 -65 20 -14 7 -45 16 -70 19 -25 4 -54
9 -65 10 -83 14 -183 17 -485 19 -190 1 -394 -1 -455 -5z"/>
</g>
</svg>
